<?xml version="1.0" encoding="UTF-8" standalone="no"?>
<!DOCTYPE svg PUBLIC "-//W3C//DTD SVG 1.1//EN" "http://www.w3.org/Graphics/SVG/1.1/DTD/svg11.dtd">
<svg version="1.1" xmlns="http://www.w3.org/2000/svg" xmlns:xlink="http://www.w3.org/1999/xlink" preserveAspectRatio="xMidYMid meet" viewBox="0 0 550 952.628" width="300" height="519.62"><defs><path d="M275 200C164.62 200 75 110.39 75 0C75 -110.39 164.62 -200 275 -200C385.38 -200 475 -110.39 475 0C475 110.39 385.38 200 275 200Z" id="a6xcxH0c7K"></path><path d="M275 1152.63C164.62 1152.63 75 1063.02 75 952.64C75 842.24 164.62 752.63 275 752.63C385.38 752.63 475 842.24 475 952.64C475 1063.02 385.38 1152.63 275 1152.63Z" id="d1voPjgvBh"></path><path d="M550 676.31C439.61 676.31 350 586.7 350 476.32C350 365.93 439.61 276.31 550 276.31C660.38 276.31 750 365.93 750 476.32C750 586.7 660.38 676.31 550 676.31Z" id="b3LDaOIbcx"></path><path d="M0 676.31C-110.39 676.31 -200 586.7 -200 476.32C-200 365.93 -110.39 276.31 0 276.31C110.38 276.31 200 365.93 200 476.32C200 586.7 110.38 676.31 0 676.31Z" id="aqA3jZ0MQ"></path></defs><g><g><g><use xlink:href="#a6xcxH0c7K" opacity="1" fill="#def2ff" fill-opacity="1"></use><g><use xlink:href="#a6xcxH0c7K" opacity="1" fill-opacity="0" stroke="#000000" stroke-width="1" stroke-opacity="0"></use></g></g><g><use xlink:href="#d1voPjgvBh" opacity="1" fill="#def2ff" fill-opacity="1"></use><g><use xlink:href="#d1voPjgvBh" opacity="1" fill-opacity="0" stroke="#000000" stroke-width="1" stroke-opacity="0"></use></g></g><g><use xlink:href="#b3LDaOIbcx" opacity="1" fill="#def2ff" fill-opacity="1"></use><g><use xlink:href="#b3LDaOIbcx" opacity="1" fill-opacity="0" stroke="#000000" stroke-width="1" stroke-opacity="0"></use></g></g><g><use xlink:href="#aqA3jZ0MQ" opacity="1" fill="#def2ff" fill-opacity="1"></use><g><use xlink:href="#aqA3jZ0MQ" opacity="1" fill-opacity="0" stroke="#000000" stroke-width="1" stroke-opacity="0"></use></g></g></g></g></svg>